<svg width="32" height="32" viewBox="0 0 32 32" fill="none" xmlns="http://www.w3.org/2000/svg">
  <rect width="32" height="32" rx="16" fill="#4F46E5"/>
  <path d="M11 16C11 14.3431 12.3431 13 14 13H18C19.6569 13 21 14.3431 21 16V20C21 21.6569 19.6569 23 18 23H14C12.3431 23 11 21.6569 11 20V16Z" fill="white"/>
  <path d="M16 9C17.1046 9 18 9.89543 18 11V13H14V11C14 9.89543 14.8954 9 16 9Z" fill="white"/>
  <path d="M21 16C21 14.3431 22.3431 13 24 13V20C24 21.6569 22.6569 23 21 23V16Z" fill="white"/>
  <path d="M11 16V23C9.34315 23 8 21.6569 8 20V13C9.65685 13 11 14.3431 11 16Z" fill="white"/>
</svg>
